<?xml version="1.0" encoding="utf-8"?>
<!-- Generator: Adobe Illustrator 15.0.0, SVG Export Plug-In . SVG Version: 6.00 Build 0)  -->
<!DOCTYPE svg PUBLIC "-//W3C//DTD SVG 1.1//EN" "http://www.w3.org/Graphics/SVG/1.1/DTD/svg11.dtd">
<svg version="1.1" id="Layer_1" xmlns="http://www.w3.org/2000/svg" xmlns:xlink="http://www.w3.org/1999/xlink" x="0px" y="0px"
	 width="514.364px" height="130.387px" viewBox="0 0 514.364 130.387" enable-background="new 0 0 514.364 130.387"
	 xml:space="preserve">
<path fill="#FFFFFF" d="M64.516,3.382c-34.167,0-61.864,27.698-61.864,61.865c0,34.166,27.697,61.863,61.864,61.863
	c34.166,0,61.864-27.697,61.864-61.863C126.38,31.08,98.682,3.382,64.516,3.382z M64.516,112.488
	c-26.091,0-47.242-21.151-47.242-47.241c0-26.091,21.151-47.242,47.242-47.242s47.241,21.151,47.241,47.242
	C111.757,91.337,90.607,112.488,64.516,112.488z"/>
<g>
	<path fill="#FFFFFF" d="M153.49,30.259v66.162h-11.56V30.259H153.49z"/>
	<path fill="#FFFFFF" d="M187.841,78.794h-18.283c0.082,3.033-0.082,9.593,4.345,9.593c2.951,0,3.689-2.296,3.689-4.756h9.838
		c-0.983,7.625-4.673,13.61-13.118,13.61c-11.724,0-15.905-10.413-15.905-20.661c0-9.92,3.607-22.382,15.659-22.382
		c7.625,0,14.675,6.805,14.02,19.841L187.841,78.794z M178.085,70.678c0-2.706-0.574-7.625-4.181-7.625
		c-3.525,0-4.263,4.755-4.263,7.379v1.229h8.444V70.678z"/>
	<path fill="#FFFFFF" d="M208.256,43.54v11.478h4.755v9.51h-4.755v31.893h-11.56V64.528h-4.018v-9.51h4.018V43.54H208.256z"/>
	<path fill="#FFFFFF" d="M233.508,43.54v11.478h4.755v9.51h-4.755v31.893h-11.56V64.528h-4.018v-9.51h4.018V43.54H233.508z"/>
	<path fill="#FFFFFF" d="M255.154,55.018v22.71c0,2.295-0.902,8.69,2.951,8.69c3.115,0,2.869-4.1,2.869-6.149l0.082-25.251h11.479
		v26.4c0,9.592-4.51,15.823-14.758,15.823c-13.117,0-14.184-9.839-14.184-17.382V55.018H255.154z"/>
	<path fill="#FFFFFF" d="M299.344,95.765c-2.131,0.984-4.263,1.477-6.641,1.477c-11.231,0-15.167-11.807-15.167-21.234
		c0-10.412,4.099-21.809,16.069-21.809c2.049,0,3.853,0.41,5.738,1.23v10.167c-1.065-0.984-1.968-1.312-3.361-1.312
		c-5.657,0-6.887,6.805-6.887,11.068c0,4.428,0.902,11.068,6.723,11.068c1.312,0,2.46-0.492,3.525-1.23V95.765z"/>
	<path fill="#FFFFFF" d="M332.794,78.794h-18.283c0.082,3.033-0.082,9.593,4.346,9.593c2.951,0,3.689-2.296,3.689-4.756h9.838
		c-0.983,7.625-4.673,13.61-13.117,13.61c-11.725,0-15.905-10.413-15.905-20.661c0-9.92,3.607-22.382,15.659-22.382
		c7.624,0,14.675,6.805,14.02,19.841L332.794,78.794z M323.039,70.678c0-2.706-0.574-7.625-4.182-7.625
		c-3.525,0-4.264,4.755-4.264,7.379v1.229h8.445V70.678z"/>
	<path fill="#FFFFFF" d="M339.518,96.421V34.604h11.97c4.755,0,8.854,0.164,12.789,3.361c4.1,3.279,6.313,8.772,6.313,13.938
		c0,5.493-2.05,9.674-6.641,12.79c5.083,2.46,7.624,9.019,7.624,14.348c0,12.216-9.019,17.381-20.168,17.381H339.518z
		 M351.734,44.852v15.085c4.591,0,7.296-3.116,7.296-7.789C359.03,47.64,356.407,44.606,351.734,44.852z M351.734,69.447v16.726
		c4.919,0.246,7.788-3.361,7.788-8.526C359.522,72.81,356.571,69.284,351.734,69.447z"/>
	<path fill="#FFFFFF" d="M408.058,75.761c0,10.576-3.361,21.48-15.741,21.48s-15.741-10.904-15.741-21.48
		s3.361-21.562,15.741-21.562S408.058,65.185,408.058,75.761z M388.135,75.761c0,2.377,0.164,11.149,4.182,11.149
		c4.017,0,4.181-8.772,4.181-11.149c0-2.378-0.164-11.15-4.181-11.15C388.299,64.61,388.135,73.383,388.135,75.761z"/>
	<path fill="#FFFFFF" d="M443.804,75.761c0,10.576-3.361,21.48-15.741,21.48s-15.741-10.904-15.741-21.48
		s3.361-21.562,15.741-21.562S443.804,65.185,443.804,75.761z M423.881,75.761c0,2.377,0.164,11.149,4.182,11.149
		c4.017,0,4.181-8.772,4.181-11.149c0-2.378-0.164-11.15-4.181-11.15C424.045,64.61,423.881,73.383,423.881,75.761z"/>
	<path fill="#FFFFFF" d="M460.366,30.259v39.271h0.164l6.312-14.511h12.544l-9.347,16.889l11.396,24.514h-12.708l-8.198-19.185
		h-0.164v19.185h-11.561V30.259H460.366z"/>
	<path fill="#FFFFFF" d="M505.704,66.168c-1.64-1.476-3.197-2.705-5.574-2.705c-2.05,0-3.116,1.229-3.116,3.033
		c0.164,4.837,13.2,3.854,13.2,16.233c0,8.198-4.755,14.512-13.282,14.512c-4.427,0-9.018-1.886-12.461-4.756l5.083-8.198
		c1.722,1.476,3.443,2.705,5.738,2.705c1.804,0,3.361-1.312,3.361-3.443c0.164-5.493-13.199-4.099-13.199-17.217
		c0-7.871,6.559-12.134,13.855-12.134c4.182,0,7.707,1.066,11.068,3.525L505.704,66.168z"/>
</g>
<g>
	<path fill="#FFFFFF" d="M59.223,96.421V34.604h11.97c4.755,0,8.854,0.164,12.79,3.361c4.099,3.279,6.312,8.772,6.312,13.938
		c0,5.493-2.05,9.674-6.641,12.79c5.083,2.46,7.624,9.019,7.624,14.348c0,12.216-9.018,17.381-20.168,17.381H59.223z M71.439,44.852
		v15.085c4.591,0,7.297-3.116,7.297-7.789C78.736,47.64,76.112,44.606,71.439,44.852z M71.439,69.447v16.726
		c4.919,0.246,7.788-3.361,7.788-8.526C79.227,72.81,76.276,69.284,71.439,69.447z"/>
	<path fill="#FFFFFF" d="M55.313,34.259v62.162H43.752V34.259H55.313z"/>
</g>
</svg>
